<svg width="426" height="486" viewBox="0 0 426 486" fill="none" xmlns="http://www.w3.org/2000/svg">
<path d="M107 432.032L132.389 360.024C132.795 359.012 133.072 357.953 133.214 356.871L145.5 263L171 214H98.5003C98.5003 214 80.5003 240.5 82.5003 269.5C84.402 297.074 93.9884 335.678 94.9265 346.972C95.0021 347.882 94.3663 348.637 93.5427 349.032C75.8571 357.507 82.5005 432.271 82.5002 442.5C83.0003 471 93.5018 468.5 100.502 468.5C114.002 468.5 99.7923 450 107 432.032Z" fill="#DD9E86"/>
<path d="M158.263 343.422C141.681 348.934 154.289 407.276 159.92 446.472C160.659 451.615 163.263 456.323 167.31 459.583L175.601 466.262C177.8 468.034 180.54 469 183.364 469H190.051C192.314 469 193.488 466.302 191.946 464.646C186.045 458.308 183.703 449.439 185.705 441.013L204.906 360.224C205.491 357.764 205.604 355.215 205.239 352.712L185 214H140.5C140.5 231.731 137.9 272.955 145.5 296L160.134 340.374C160.56 341.667 159.556 342.992 158.263 343.422Z" fill="#DD9E86"/>
<path d="M79.1624 411.151L81.7941 446H105.824L116.221 411.578C116.609 410.294 115.648 409 114.307 409H81.1567C79.9928 409 79.0748 409.99 79.1624 411.151Z" fill="white"/>
<path d="M194.739 411.232L190.681 446H159.126L152.458 411.378C152.22 410.145 153.166 409 154.422 409H192.753C193.949 409 194.878 410.043 194.739 411.232Z" fill="white"/>
<path d="M152.5 214H185.486C187.496 214 189.194 215.491 189.453 217.485L199.913 297.985C200.224 300.378 198.36 302.5 195.947 302.5H147.658L140 280.358L152.5 214Z" fill="#B48CFF"/>
<path fill-rule="evenodd" clip-rule="evenodd" d="M166 302.5H147.659L144.484 293.323L156.3 260.745C158.208 255.484 166 256.846 166 262.444V302.5Z" fill="#9F6DFE"/>
<path d="M90.991 222.162L95.3106 215.762C96.0543 214.66 97.2967 214 98.626 214H176L159.666 259.326C157.23 266.086 155.577 273.104 154.74 280.241L152.162 302.216C151.925 304.231 150.218 305.75 148.189 305.75H82.3236C80.1846 305.75 78.4241 304.067 78.3277 301.93L77.2889 278.905C77.0968 274.646 77.3307 270.378 77.9872 266.165L80.8006 248.113C82.2491 238.819 85.7284 229.958 90.991 222.162Z" fill="#B48CFF"/>
<path d="M153 472.809C153 467.617 153.539 462.439 154.609 457.358L156.595 447.924C157.859 441.921 164.181 438.46 169.919 440.632L175.111 442.596C176.326 443.056 177.65 442.253 177.804 440.964L178.154 438.047C178.637 434.026 182.048 431 186.097 431H189.484C193.047 431 196.181 433.357 197.17 436.78L200.24 447.409C201.341 451.22 204.255 454.241 208.023 455.479L231.497 463.192C234.781 464.271 237 467.336 237 470.792V482C237 484.209 235.209 486 233 486H157C154.791 486 153 484.209 153 482V472.809Z" fill="#F4B510"/>
<path d="M75 465L77.151 444.748C77.4836 441.617 81.3929 440.392 83.4528 442.774C83.7669 443.137 84.3416 443.097 84.6021 442.693L89.7896 434.66C91.2631 432.378 93.7938 431 96.5101 431H102.801C106.357 431 109.486 433.347 110.481 436.761L114.223 449.598C114.961 452.129 116.511 454.346 118.635 455.908L127.739 462.602C129.789 464.11 131 466.503 131 469.047V482C131 484.209 129.209 486 127 486H79C76.7909 486 75 484.209 75 482V465Z" fill="#F4B510"/>
<path d="M153 476H231C232.105 476 233 476.895 233 478V480C233 481.105 232.105 482 231 482H153V476Z" fill="#389810"/>
<path d="M75 476H92C93.1046 476 94 476.895 94 478V480C94 481.105 93.1046 482 92 482H75V476Z" fill="#389810"/>
<path d="M206.143 452L197 458L209 454L202.714 461" stroke="#E379F8" stroke-width="2" stroke-linejoin="bevel"/>
<path d="M114 452L96.5 456H116.5L103 460" stroke="#E379F8" stroke-width="2" stroke-linejoin="bevel"/>
<path d="M279.405 140.742L283.5 142.651L292.441 156.012C295.092 159.974 294.578 165.256 291.213 168.632L270.327 189.589C254.754 205.216 233.599 214 211.537 214H171V121L217.466 137.057C229.974 141.38 243.334 142.648 256.432 140.758L268.098 139.074C271.949 138.518 275.878 139.098 279.405 140.742Z" fill="#ECA8FF"/>
<path fill-rule="evenodd" clip-rule="evenodd" d="M171 124.661C184.361 131.416 195.139 142.935 200.811 157.494L204.961 168.147C209.865 180.735 218.569 191.483 229.864 198.895L239.434 205.175C240.674 205.989 241.575 207.013 242.169 208.14C232.512 211.975 222.129 214 211.537 214H171V124.661Z" fill="#E379F8"/>
<path d="M100.972 183H181.692C181.692 200 185 214 185 214H99L99.1159 213.592C101.942 203.649 102.575 193.211 100.972 183Z" fill="#DD9E86"/>
<path d="M121.102 111H150.064C169.419 111 185.229 125.094 191.019 143.563C196.435 160.837 201.009 164.2 207.266 195.371C208.228 200.161 204.612 204.635 199.728 204.786L67.7559 208.853C65.2731 208.93 63.3259 206.767 63.7106 204.313C65.6158 192.158 71.1604 159.398 77.9999 142.5C85.1262 124.894 102.108 111 121.102 111Z" fill="#ECA8FF"/>
<path d="M103 132L66 160.16L97.5 208.5L113.75 207.75C113.75 207.75 109.5 192 109 179C108.5 166 103 132 103 132Z" fill="#E379F8"/>
<path d="M314.813 119.249L303.23 122.817C303.013 122.884 302.815 122.983 302.633 123.118C301.152 124.211 293.853 129.582 287.411 134C288.274 131 289.3 124.2 286.5 121C283.875 118 281.529 118 279.764 118C278 118 279.5 122.5 280.5 124C281.27 125.155 278.937 129.673 278.386 134.576C278.065 137.432 277.765 140.385 276.417 142.923C274.305 146.903 274.49 151.711 276.904 155.516L277.283 156.114C280.31 160.887 286.088 163.141 291.548 161.678L291.691 161.726C296.691 163.418 302.21 161.679 305.338 157.428C305.62 157.044 306.039 156.782 306.508 156.698L311.135 155.862C311.506 155.795 311.888 155.834 312.238 155.975L318.615 158.544C319.31 158.824 320.103 158.693 320.669 158.203L321.57 157.426C322.552 156.578 322.48 155.034 321.423 154.282L313.988 148.993C313.609 148.723 313.147 148.594 312.682 148.628L309.533 148.86C308.915 148.906 308.782 148.009 309.387 147.874L314.078 146.824C314.331 146.767 314.593 146.761 314.849 146.804L325.037 148.531C326.292 148.744 327.424 147.745 327.37 146.473L327.34 145.78C327.303 144.92 326.719 144.18 325.892 143.943L313.721 140.461C313.419 140.375 313.102 140.361 312.794 140.42L306.571 141.614C306.026 141.719 305.741 140.99 306.213 140.698L313.363 136.272C313.57 136.144 313.798 136.055 314.037 136.009L324.517 133.988C325.917 133.718 326.593 132.112 325.808 130.922L325.489 130.439C325.091 129.836 324.398 129.494 323.677 129.546L312.017 130.385C311.768 130.403 311.524 130.467 311.299 130.575L301.746 135.129C301.244 135.369 300.785 134.731 301.172 134.331L307.102 128.197C307.268 128.025 307.464 127.885 307.679 127.782L316.836 123.416C318.175 122.777 318.377 120.954 317.21 120.038L316.637 119.588C316.121 119.183 315.44 119.056 314.813 119.249Z" fill="#DD9E86"/>
<path d="M102.371 294.767L98.9 291.606C95.2817 288.31 93.527 283.462 93.7748 278.566L73.5493 287.596C74.3239 295.776 75.9535 303.896 78.387 311.745C78.6218 312.502 78.65 313.312 78.4665 314.082C78.3084 314.746 78.3061 315.437 78.4598 316.102L79.3022 319.746C79.4805 320.518 80.0092 321.16 80.7293 321.481C81.4495 321.802 81.9782 322.445 82.1565 323.216L82.2016 323.412C82.4211 324.361 83.0978 325.139 84.0048 325.484L84.6589 325.733C85.4841 326.047 86.191 326.614 86.6795 327.354L87.0312 327.886C87.8438 329.116 89.0879 329.992 90.514 330.34C91.2037 330.508 91.8573 330.801 92.4425 331.206L97.1939 334.49C97.8508 334.944 98.7107 334.968 99.3893 334.551C100.283 334.002 100.608 332.856 100.137 331.912L94.9512 321.513C94.5074 320.623 94.2889 319.637 94.3152 318.643L94.5337 310.401C94.5679 309.111 95.4641 308.009 96.7144 307.72C98.2318 307.369 99.7479 308.322 100.101 309.849L100.252 310.503C100.329 310.836 100.357 311.178 100.336 311.519L100.196 313.749C100.096 315.346 100.631 316.919 101.683 318.123L102.538 319.1C103.576 320.287 105.505 319.867 105.954 318.356L107.837 312.03C108.195 310.829 108.171 309.545 107.768 308.356L104.03 297.305C103.7 296.331 103.129 295.458 102.371 294.767Z" fill="#DD9E86"/>
<path d="M102.946 314.62C103.078 313.298 103.899 312.298 104.78 312.385C105.662 312.473 106.269 313.616 106.137 314.938C106.005 316.26 105.184 317.26 104.303 317.173C103.422 317.085 102.814 315.942 102.946 314.62Z" fill="#FAC798"/>
<path d="M96.2479 332.665C95.3417 331.694 95.0222 330.519 95.5343 330.041C96.0465 329.563 97.1964 329.963 98.1027 330.935C99.009 331.906 99.3284 333.081 98.8163 333.559C98.3041 334.037 97.1542 333.637 96.2479 332.665Z" fill="#FAC798"/>
<path d="M95.4458 286.721L80.0538 295.396C75.1109 298.182 68.8428 296.302 66.2494 291.256L41.6408 243.369C36.7832 233.916 36.2249 222.831 40.1081 212.938L65.4518 148.372C72.0701 131.511 86.4347 118.893 104.008 114.503L118.033 111L99.8369 211.141C98.9473 216.037 98.4998 221.003 98.4997 225.979L98.4998 281.494C98.4998 283.66 97.3326 285.658 95.4458 286.721Z" fill="#ECA8FF"/>
<path d="M124.5 158.336L121 177L129 174.544M141 153.916L143 171.106L148 151.951M157 165.703L150.5 168.159L152 158.827M152 158.827L153 150.969L158 149.495M152 158.827L157 157.354M160.5 157.599L161.5 148.513C163.833 147.367 168 144.976 168 150.477C168 152.442 166.5 154.407 164.5 155.88M160.5 157.599L160 165.703M160.5 157.599C161.3 157.722 162.5 157.354 164.5 155.88M164.5 155.88L167 163.739M136.863 164.721C136.386 169.402 134.627 173.562 133.046 173.562C131.464 173.562 130.659 169.922 131.137 164.721C131.614 159.521 133.373 155.88 134.954 155.88C136.536 155.88 137.341 160.041 136.863 164.721Z" stroke="white" stroke-width="2"/>
<path d="M120 183L170.5 167" stroke="#F23116" stroke-width="2"/>
<path d="M120 156L170.5 140" stroke="#F23116" stroke-width="2"/>
<path fill-rule="evenodd" clip-rule="evenodd" d="M128.5 6C118.835 6 111 13.835 111 23.5C111 26.0094 111.528 28.3955 112.479 30.553C113.145 32.0617 112.144 34 110.495 34H110C90.1178 34 74 50.1177 74 70V75C74 94.8822 90.1177 111 110 111H164C183.882 111 200 94.8822 200 75V70C200 50.1177 183.882 34 164 34C162.559 34 161.691 32.313 162.31 31.012C163.394 28.7358 164 26.1887 164 23.5C164 13.835 156.165 6 146.5 6H128.5Z" fill="#A6735B"/>
<path d="M167 93C167 96.1438 166.149 98.9448 164.825 100.931C163.496 102.923 161.771 104 160 104C158.229 104 156.504 102.923 155.175 100.931C153.851 98.9448 153 96.1438 153 93C153 89.8562 153.851 87.0552 155.175 85.0694C156.504 83.0766 158.229 82 160 82C161.771 82 163.496 83.0766 164.825 85.0694C166.149 87.0552 167 89.8562 167 93Z" stroke="#F4B510" stroke-width="2"/>
<path fill-rule="evenodd" clip-rule="evenodd" d="M124.57 63H133C137.239 63 141.062 60.4513 142.692 56.5385L143.333 55L143.607 55.8204C145.036 60.108 149.048 63 153.568 63H159.653C160.255 64.4285 160.673 65.9962 160.87 67.703C161.045 69.2173 161.232 70.7415 161.809 72.1527C162.426 73.6638 163 75.0679 163 77C163 82.0075 161.748 86.6712 159.532 90.5818C158.845 91.7945 158.206 93.0581 157.565 94.3259C156.396 96.6399 155.219 98.9683 153.727 101.029C151.547 104.041 148.002 106 144 106C143.529 106 143.064 105.973 142.606 105.92L145.294 115.925C146.659 121.007 142.83 126 137.568 126H135C126.163 126 119 118.837 119 110V87.1079C118.918 86.912 118.839 86.7147 118.762 86.5162C117.984 84.5065 116.155 83 114 83C111.791 83 110 81.2091 110 79V76.0623C110 71.9604 115.438 70.5163 117.473 74.0777C118.087 75.1515 119.493 75.2774 120.041 74.1684C120.655 72.924 121.232 71.3514 121.868 69.6206C122.63 67.544 123.476 65.2394 124.57 63Z" fill="#DD9E86"/>
<path d="M121 93C121 96.1438 120.149 98.9448 118.825 100.931C117.496 102.923 115.771 104 114 104C112.229 104 110.504 102.923 109.175 100.931C107.851 98.9448 107 96.1438 107 93C107 89.8562 107.851 87.0552 109.175 85.0694C110.504 83.0766 112.229 82 114 82C115.771 82 117.496 83.0766 118.825 85.0694C120.149 87.0552 121 89.8562 121 93Z" stroke="#F4B510" stroke-width="2"/>
<path d="M145 71L145.699 75.8919C145.898 77.2855 146.35 78.6309 147.034 79.8615L148.572 82.6292C149.661 84.5902 148.243 87 146 87V87" stroke="#1A2027" stroke-width="2"/>
<path d="M152 83C152 84.1046 151.105 85 150 85L149 85" stroke="#1A2027" stroke-width="2"/>
<path d="M143 85C141.895 85 141 84.1046 141 83" stroke="#1A2027" stroke-width="2"/>
<path d="M150.995 92.0813C150.915 91.3497 147.613 91.0976 146.795 92.8523C145.833 91.0976 140.387 90.3033 138 91.7534C140.811 94.3333 140.492 97 146.367 97C148.645 97 149.61 94.8093 149.851 93.6064C150.16 93.2943 151.075 92.8129 150.995 92.0813Z" fill="#C61800"/>
<path d="M139 70C136.791 67.3333 133.209 67.3333 131 70" stroke="#1A2027" stroke-width="2"/>
<path d="M139 73C136.791 70.3333 133.209 70.3333 131 73C134.2 76.6 137.667 74.5 139 73Z" fill="white"/>
<path d="M159 73C156.791 70.3333 153.209 70.3333 151 73C154.2 76.6 157.667 74.5 159 73Z" fill="white"/>
<path d="M159 70C156.791 67.3333 153.209 67.3333 151 70" stroke="#1A2027" stroke-width="2"/>
<path d="M158 76C156.343 74.6667 153.657 74.6667 152 76" stroke="#1A2027" stroke-width="2"/>
<path d="M138 76C136.343 74.6667 133.657 74.6667 132 76" stroke="#1A2027" stroke-width="2"/>
<circle cx="135" cy="73" r="2" fill="#1A2027"/>
<circle cx="155" cy="73" r="2" fill="#1A2027"/>
<g clip-path="url(#clip0_1064_407)">
<path d="M299.815 362.571L255 214H327.5C327.5 214 345.5 240.5 343.5 269.5C341.683 295.851 335.324 334.338 334.178 347.752C334.051 349.239 335.588 350.205 336.986 349.682C366.002 338.807 387.911 387.201 400 422.5L387.5 434.5L304.227 369.036C302.127 367.386 300.586 365.128 299.815 362.571Z" fill="#9B4B35"/>
<path d="M217.009 341.432C217.068 334.711 217.523 307.884 221 290.5C225 270.5 241 214 241 214H285.5C285.5 231.731 283.6 272.955 276 296L261.366 340.374C260.939 341.667 261.927 342.994 263.26 343.274C286.249 348.101 269.819 415.466 265 454.5H244.5L217.378 344.534C217.127 343.515 217 342.481 217.009 341.432Z" fill="#9B4B35"/>
<rect width="39" height="19" rx="4" transform="matrix(-0.799308 0.600922 0.600922 0.799308 381.583 380)" fill="#F23116"/>
<path d="M220.22 255.708L238.427 216.322C239.081 214.906 240.498 214 242.058 214H259.5L281 300.5L275.483 328.084C274.525 332.877 275.268 337.855 277.585 342.159L278.758 344.336C280.234 347.078 281.082 350.113 281.241 353.223L283.875 404.931C284.487 416.933 274.92 427 262.903 427H241.808C231.534 427 222.769 419.567 221.09 409.431L211.559 351.877C211.188 349.632 211.056 347.354 211.168 345.081L214.39 279.425C214.793 271.219 216.772 263.166 220.22 255.708Z" fill="#F23116"/>
<path d="M417.673 418.564C414.002 414.892 409.959 411.612 405.61 408.776L397.535 403.509C392.396 400.158 385.478 402.182 382.956 407.774L380.674 412.834C380.14 414.018 378.637 414.387 377.615 413.585L375.305 411.77C372.121 409.268 367.569 409.54 364.706 412.403L362.311 414.798C359.792 417.318 359.242 421.2 360.964 424.32L366.308 434.007C368.225 437.48 368.301 441.676 366.511 445.217L355.367 467.269C353.808 470.354 354.406 474.09 356.85 476.534L364.775 484.459C366.337 486.022 368.87 486.022 370.432 484.459L424.172 430.719C425.734 429.157 425.734 426.625 424.172 425.062L417.673 418.564Z" fill="#1A2027"/>
<path d="M419.929 420.819L364.774 475.974C363.993 476.755 363.993 478.021 364.774 478.802L366.189 480.216C366.97 480.997 368.236 480.997 369.017 480.216L424.171 425.062L419.929 420.819Z" fill="white"/>
<path d="M365.381 441.427L376.088 439.205L364.775 444.861L374.169 445.366" stroke="#F23116" stroke-width="2" stroke-linejoin="bevel"/>
<path fill-rule="evenodd" clip-rule="evenodd" d="M280.965 350.762C273.075 345.643 258 334.264 258 313V219L266.716 243.03L281 300.5L275.483 328.084C274.525 332.877 275.268 337.855 277.585 342.159L278.751 344.324C279.837 346.34 280.583 348.515 280.965 350.762Z" fill="#C61800"/>
<path d="M349.58 244.168L336.271 216.277C335.607 214.886 334.202 214 332.661 214H246L291.11 364.909C292.572 369.797 295.297 374.214 299.011 377.713L326.961 404.039C328.954 405.917 331.395 407.251 334.051 407.915L342.938 410.137C347.425 411.259 352.177 410.384 355.971 407.739L381.464 389.96C385.56 387.104 388 382.427 388 377.435C388 374.147 386.939 370.948 384.975 368.312L371.313 349.972C367.647 345.051 362.214 341.747 356.159 340.756C349.59 339.68 345.201 333.399 346.449 326.86L354.684 283.736C357.242 270.34 355.454 256.477 349.58 244.168Z" fill="#F23116"/>
<rect width="39" height="19" rx="4" transform="matrix(-1 0 0 1 271 419)" fill="#F23116"/>
<path d="M273 472.809C273 467.617 272.461 462.439 271.391 457.358L269.405 447.924C268.141 441.921 261.819 438.46 256.081 440.632L250.889 442.596C249.674 443.056 248.35 442.253 248.196 440.964L247.846 438.047C247.363 434.026 243.952 431 239.903 431H236.516C232.953 431 229.819 433.357 228.83 436.78L225.76 447.409C224.659 451.22 221.745 454.241 217.977 455.479L194.503 463.192C191.219 464.271 189 467.336 189 470.792V482C189 484.209 190.791 486 193 486H269C271.209 486 273 484.209 273 482V472.809Z" fill="#1A2027"/>
<path d="M273 476H195C193.895 476 193 476.895 193 478V480C193 481.105 193.895 482 195 482H273V476Z" fill="white"/>
<path d="M219.857 452L229 458L217 454L223.286 461" stroke="#F23116" stroke-width="2" stroke-linejoin="bevel"/>
<path d="M324.5 221L336.197 253.751C338.374 259.848 339.24 266.337 338.738 272.792L334.542 326.697C333.653 338.106 341.185 348.471 352.311 351.149V351.149C357.297 352.349 361.748 355.162 364.972 359.15L374.515 370.953C377.336 374.442 378.336 379.062 377.21 383.405V383.405C376.129 387.573 377.004 392.006 379.588 395.45L381.5 398" stroke="white" stroke-width="4"/>
</g>
<path d="M169.931 168.854L221.234 192.388C224.468 193.727 228.184 192.82 230.416 190.146L253.275 162.773H255.866C268.564 162.773 280.546 156.889 288.31 146.84L316 111.002L288 111.002H266C261.229 110.913 256.245 113.393 253.064 118.047C242.774 133.104 228.28 154.01 217.16 168.854C215.603 170.931 212.501 170.943 210.629 169.122C208.757 167.301 200.779 156.274 184.421 152.149C179.682 150.954 175.569 147.857 173.48 143.432L171.475 139.187C171.037 138.259 170.37 137.458 169.538 136.858L160.088 130.048C159.071 129.316 157.854 128.917 156.605 128.908L150.026 128.858C148.454 128.846 147.493 130.568 148.323 131.908L149.006 133.012C149.848 134.37 151.192 135.342 152.744 135.714L154.911 136.233C155.242 136.312 155.56 136.439 155.855 136.61L156.434 136.946C157.788 137.73 158.256 139.459 157.48 140.808C156.841 141.919 155.53 142.454 154.289 142.11L146.368 139.907C145.412 139.642 144.536 139.144 143.816 138.459L135.409 130.456C134.646 129.73 133.459 129.706 132.676 130.4C132.081 130.927 131.854 131.757 132.096 132.518L133.845 138.023C134.061 138.701 134.15 139.412 134.11 140.121C134.026 141.587 134.5 143.034 135.437 144.171L135.842 144.663C136.405 145.346 136.74 146.188 136.799 147.07L136.846 147.768C136.912 148.737 137.456 149.611 138.298 150.099L138.471 150.2C139.154 150.596 139.614 151.289 139.71 152.072C139.807 152.855 140.266 153.549 140.95 153.945L144.179 155.817C144.768 156.158 145.428 156.359 146.107 156.401C146.895 156.451 147.659 156.715 148.313 157.161C155.088 161.785 162.356 165.719 169.931 168.854Z" fill="#9B4B35"/>
<path d="M233.228 121.972C238.103 115.09 246.012 111 254.445 111H272.5L250.251 190.727C249.449 193.6 245.897 194.616 243.697 192.602L209.602 161.383C208.115 160.021 207.874 157.766 209.04 156.121L233.228 121.972Z" fill="#FFB3DA"/>
<path d="M151.811 132.6C153.114 132.86 154.31 132.367 154.484 131.498C154.657 130.63 153.741 129.715 152.439 129.455C151.136 129.195 149.939 129.688 149.766 130.557C149.593 131.425 150.508 132.34 151.811 132.6Z" fill="#D58E54"/>
<path fill-rule="evenodd" clip-rule="evenodd" d="M264.5 139.667V111L253.033 116.734C249.509 118.496 246.89 121.661 245.82 125.453L230.327 180.359L243.697 192.602C245.897 194.616 249.449 193.6 250.251 190.727L264.5 139.667Z" fill="#F778B9"/>
<path d="M328 210V111H312L280.525 147.38C278.101 150.182 273.5 148.468 273.5 144.763V111H264.741C257.767 111 251.856 116.133 250.879 123.037L238.646 209.439C238.305 211.847 240.174 214 242.606 214H324C326.209 214 328 212.209 328 210Z" fill="#FFB3DA"/>
<path d="M328 174C324.022 174 320.206 170.787 317.393 165.067C314.58 159.347 313 151.589 313 143.5C313 135.411 314.58 127.653 317.393 121.933C320.206 116.213 324.022 113 328 113L328 143.5L328 174Z" fill="#F778B9"/>
<path d="M366.781 189.668L341.441 120.404C339.374 114.756 334 111 327.986 111C317.383 111 310.425 122.122 315.003 131.686C323.107 148.616 334.336 172.494 341.62 189.703C342.415 191.582 341.638 193.723 339.971 194.898C318.053 210.338 304.413 257.325 302.5 264.5C300.65 271.438 294.092 288.219 293.121 290.693C293.038 290.904 292.996 291.116 292.987 291.342L292.539 303.454C292.514 304.109 292.813 304.735 293.337 305.128L293.921 305.565C295.108 306.456 296.817 305.789 297.087 304.33L298.934 294.355C298.978 294.12 299.063 293.895 299.186 293.69L303.575 286.374C303.862 285.897 304.597 286.175 304.496 286.723L302.569 297.129C302.523 297.374 302.524 297.626 302.571 297.871L304.779 309.35C304.915 310.061 305.425 310.642 306.111 310.87L306.659 311.053C308.012 311.504 309.388 310.435 309.287 309.013L308.526 298.367C308.509 298.124 308.536 297.881 308.606 297.648L311.031 289.596C311.191 289.065 311.968 289.151 312.008 289.704L312.466 296.024C312.488 296.337 312.584 296.64 312.745 296.909L319.258 307.764C319.701 308.502 320.567 308.874 321.407 308.687L322.085 308.537C323.328 308.26 324 306.908 323.469 305.751L319.164 296.357C319.056 296.121 318.994 295.867 318.984 295.607L318.784 290.804C318.758 290.185 319.658 290.081 319.774 290.69L320.307 293.486C320.428 294.122 320.85 294.66 321.438 294.93L330.311 298.997C331.449 299.518 332.781 298.878 333.084 297.663L333.182 297.271C333.375 296.499 333.092 295.686 332.461 295.201L327.7 291.539C327.254 291.196 326.973 290.68 326.927 290.12L326.562 285.74C326.522 285.265 326.666 284.793 326.964 284.42C330.261 280.299 330.512 274.518 327.584 270.126L327.5 270L366.348 196.14C367.4 194.141 367.557 191.79 366.781 189.668Z" fill="#9B4B35"/>
<path d="M293 303C293 304.105 293.672 305 294.5 305C295.328 305 296 304.105 296 303C296 301.895 295.328 301 294.5 301C293.672 301 293 301.895 293 303Z" fill="#D58E54"/>
<path d="M305 308C305 309.105 305.672 310 306.5 310C307.328 310 308 309.105 308 308C308 306.895 307.328 306 306.5 306C305.672 306 305 306.895 305 308Z" fill="#D58E54"/>
<path d="M319.311 306.795C319.817 307.808 320.759 308.274 321.415 307.835C322.071 307.396 322.194 306.219 321.689 305.205C321.183 304.192 320.241 303.726 319.585 304.165C318.929 304.604 318.806 305.781 319.311 306.795Z" fill="#D58E54"/>
<path d="M329.716 297.86C330.81 298.209 331.823 297.882 331.98 297.131C332.136 296.38 331.377 295.488 330.284 295.14C329.19 294.791 328.177 295.118 328.02 295.869C327.864 296.62 328.623 297.512 329.716 297.86Z" fill="#D58E54"/>
<path d="M328 198V134H312L305.27 179.616C303.812 189.293 311.305 198 321.092 198H328Z" fill="#F778B9"/>
<path d="M362.513 130.538C359.563 119.04 349.2 111 337.329 111H311.5V183C311.5 185.209 313.291 187 315.5 187H371.844C374.457 187 376.368 184.536 375.719 182.006L362.513 130.538Z" fill="#FFB3DA"/>
<path fill-rule="evenodd" clip-rule="evenodd" d="M262.934 31.7974C259.709 36.6293 257.011 42.1568 253.229 46.5667C246.748 54.1241 243.372 64.3487 244.926 75.1334L245.956 82.2842C246.963 89.2734 245.892 96.4045 242.877 102.79L240.348 108.146C239.721 109.473 240.689 111 242.156 111H303C322.882 111 339 94.8822 339 75V70C339 59.8477 334.798 50.677 328.037 44.1324C323.903 40.1302 320.72 34.9439 317.093 30.4769C313.884 26.5252 308.987 24 303.5 24H277.5C271.424 24 266.071 27.0964 262.934 31.7974Z" fill="#1A2027"/>
<path fill-rule="evenodd" clip-rule="evenodd" d="M302.757 66.0002H283.756C279.7 66.0002 276.007 63.6646 274.269 60.0003L274 59.4326V66.0002H272.224C269.902 66.0002 267.737 65.2412 265.983 63.9443C265.575 65.1117 265.285 66.3646 265.13 67.7032C264.955 69.2175 264.768 70.7417 264.191 72.1529C263.574 73.664 263 75.068 263 77.0002C263 82.0077 264.252 86.6714 266.468 90.582C267.155 91.7947 267.794 93.0583 268.435 94.3261C269.604 96.6401 270.781 98.9685 272.273 101.029C274.453 104.041 277.998 106 282 106C282.471 106 282.936 105.973 283.394 105.92L280.706 115.925C279.341 121.007 283.17 126 288.432 126H291C299.837 126 307 118.837 307 110V87.1081C307.082 86.9121 307.161 86.7149 307.238 86.5164C308.016 84.5066 309.845 83.0002 312 83.0002C314.209 83.0002 316 81.2093 316 79.0002V76.0624C316 71.9606 310.562 70.5165 308.527 74.0779C307.913 75.1517 306.507 75.2776 305.959 74.1686C305.345 72.9242 304.768 71.3516 304.132 69.6208C303.709 68.4675 303.26 67.2439 302.757 66.0002Z" fill="#9B4B35"/>
<path d="M281 71L280.301 75.8919C280.102 77.2855 279.65 78.6309 278.966 79.8615L277.428 82.6292C276.339 84.5902 277.757 87 280 87V87" stroke="#1A2027" stroke-width="2"/>
<path d="M274 83C274 84.1046 274.895 85 276 85L277 85" stroke="#1A2027" stroke-width="2"/>
<path d="M283 85C284.105 85 285 84.1046 285 83" stroke="#1A2027" stroke-width="2"/>
<path d="M275.005 92.0813C275.085 91.3497 278.387 91.0976 279.205 92.8523C280.167 91.0976 285.613 90.3033 288 91.7534C285.189 94.3333 285.508 97 279.633 97C277.355 97 276.39 94.8093 276.149 93.6064C275.84 93.2943 274.925 92.8129 275.005 92.0813Z" fill="#C61800"/>
<path d="M285 74C285 75.6569 286.343 77 288 77" stroke="#1A2027" stroke-width="2"/>
<path d="M277 74C277 75.6569 275.657 77 274 77" stroke="#1A2027" stroke-width="2"/>
<path d="M297 71C293.686 67 288.314 67 285 71" stroke="#1A2027" stroke-width="2"/>
<path d="M265 71C268.314 67 273.686 67 277 71" stroke="#1A2027" stroke-width="2"/>
<path d="M287 73C289.209 70.3333 292.791 70.3333 295 73C291.8 76.6 288.333 74.5 287 73Z" fill="white"/>
<path d="M267 73C269.209 70.3333 272.791 70.3333 275 73C271.8 76.6 268.333 74.5 267 73Z" fill="white"/>
<circle cx="2" cy="2" r="2" transform="matrix(-1 0 0 1 293 71)" fill="#1A2027"/>
<circle cx="2" cy="2" r="2" transform="matrix(-1 0 0 1 273 71)" fill="#1A2027"/>
<defs>
<clipPath id="clip0_1064_407">
<rect width="250" height="272" fill="white" transform="matrix(-1 0 0 1 426 214)"/>
</clipPath>
</defs>
</svg>
